<?xml version="1.0" encoding="utf-8"?>
<!-- Generator: Adobe Illustrator 16.0.0, SVG Export Plug-In . SVG Version: 6.00 Build 0)  -->
<!DOCTYPE svg PUBLIC "-//W3C//DTD SVG 1.1//EN" "http://www.w3.org/Graphics/SVG/1.1/DTD/svg11.dtd">
<svg version="1.1" id="Capa_1" xmlns="http://www.w3.org/2000/svg" xmlns:xlink="http://www.w3.org/1999/xlink" x="0px" y="0px"
	 width="53.288px" height="51.701px" viewBox="0 0 53.288 51.701" enable-background="new 0 0 53.288 51.701" xml:space="preserve">
<g>
	<circle fill="#FFFFFF" cx="26.644" cy="25.85" r="24.486"/>
	<g>
		<g>
			<path fill="#999999" d="M35.135,20.272l-2.326-8.464c0,0-4.566-1.692-6.165-1.692s-6.167,1.692-6.167,1.692l-2.326,8.464h8.493
				H35.135z"/>
			<path fill="#999999" d="M37.042,24.443c0,0-3.022-1.45-10.397-1.45c-7.376,0-10.398,1.45-10.398,1.45l-7.737,3.023h18.136H44.78
				L37.042,24.443z"/>
			<path fill="#999999" d="M32.135,28.875c-3.815,0-5.491,0.655-5.491,0.655s-1.676-0.655-5.491-0.655
				c-5.414,0-5.993,0.478-5.993,0.478v1.399l0.625,0.359c0,0,0.239,2.057,1.004,3.935c0.768,1.878,3.636,1.819,5.824,1.162
				c2.088-0.626,2.98-4.62,2.98-4.62h1.051h1.051c0,0,0.895,3.994,2.98,4.62c2.188,0.657,5.057,0.716,5.823-1.162
				c0.766-1.878,1.004-3.935,1.004-3.935l0.626-0.359v-1.399C38.128,29.352,37.549,28.875,32.135,28.875z"/>
		</g>
	</g>
</g>
</svg>
