<?xml version="1.0" encoding="utf-8"?>
<!-- Generator: Adobe Illustrator 16.0.0, SVG Export Plug-In . SVG Version: 6.00 Build 0)  -->
<!DOCTYPE svg PUBLIC "-//W3C//DTD SVG 1.1//EN" "http://www.w3.org/Graphics/SVG/1.1/DTD/svg11.dtd">
<svg version="1.1" id="Capa_1" xmlns="http://www.w3.org/2000/svg" xmlns:xlink="http://www.w3.org/1999/xlink" x="0px" y="0px"
	 width="258.667px" height="45px" viewBox="0 0 258.667 45" enable-background="new 0 0 258.667 45" xml:space="preserve">
<g id="fondo">
</g>
<g id="bar">
</g>
<g id="Capa_1_1_">
	<g>
		<path fill="#636363" d="M89.909,19.385V10.98h3.35l1.51,5.248l1.488-5.248h3.352v8.405h-2.483v-2.563l0.021-1.31l0.146-1.521
			h-0.021l-1.55,5.393h-1.925l-1.552-5.393h-0.021l0.125,1.232l0.061,1.312v2.849L89.909,19.385L89.909,19.385z M101.057,10.754
			h2.439v1.723h-2.439V10.754z M101.057,19.385v-6.11h2.439v6.11H101.057z M104.819,13.274h2.235v0.946
			c0.268-0.37,0.577-0.637,0.887-0.842c0.332-0.186,0.725-0.287,1.2-0.287c0.809,0,1.406,0.225,1.799,0.676
			c0.393,0.453,0.583,1.107,0.583,1.948v3.669h-2.443v-3.237c0-0.146-0.021-0.288-0.041-0.432c-0.021-0.143-0.06-0.265-0.125-0.369
			c-0.081-0.103-0.163-0.186-0.268-0.245c-0.124-0.063-0.247-0.081-0.432-0.081c-0.373,0-0.622,0.1-0.768,0.326
			c-0.124,0.227-0.185,0.534-0.185,0.923v3.115h-2.441L104.819,13.274L104.819,13.274z M112.845,10.754h2.441v1.723h-2.441V10.754z
			 M112.845,19.385v-6.11h2.441v6.11H112.845z M118.742,17.479c0,0.247,0.101,0.432,0.266,0.575
			c0.167,0.123,0.373,0.185,0.601,0.185c0.185,0,0.373-0.042,0.537-0.123c0.167-0.062,0.249-0.205,0.249-0.432
			c0-0.164-0.105-0.287-0.29-0.368c-0.188-0.082-0.412-0.143-0.702-0.206c-0.27-0.061-0.581-0.124-0.91-0.184
			c-0.332-0.083-0.624-0.188-0.91-0.31c-0.27-0.143-0.498-0.327-0.704-0.553c-0.187-0.244-0.27-0.552-0.27-0.944
			c0-0.389,0.083-0.717,0.27-0.982c0.186-0.268,0.414-0.474,0.704-0.615c0.286-0.164,0.597-0.266,0.951-0.329
			c0.332-0.061,0.682-0.102,0.992-0.102c0.332,0,0.684,0.02,1.035,0.082c0.33,0.041,0.661,0.123,0.949,0.266
			c0.29,0.145,0.537,0.35,0.724,0.594c0.208,0.248,0.311,0.575,0.352,0.987h-2.21c-0.043-0.187-0.105-0.33-0.249-0.452
			c-0.124-0.104-0.29-0.144-0.5-0.144c-0.204,0-0.371,0.04-0.494,0.102c-0.125,0.062-0.185,0.185-0.185,0.329
			c0,0.143,0.084,0.246,0.288,0.328c0.187,0.082,0.434,0.143,0.725,0.204c0.29,0.063,0.601,0.145,0.93,0.227
			c0.332,0.061,0.642,0.184,0.932,0.327c0.286,0.123,0.535,0.328,0.723,0.554c0.188,0.246,0.29,0.555,0.29,0.923
			c0,0.656-0.27,1.168-0.807,1.56c-0.537,0.388-1.385,0.594-2.503,0.594c-0.375,0-0.725-0.041-1.074-0.103
			c-0.352-0.061-0.663-0.164-0.953-0.327c-0.311-0.144-0.537-0.369-0.745-0.637c-0.185-0.266-0.309-0.614-0.332-1.025
			L118.742,17.479L118.742,17.479z M127.86,19.385c-0.786,0.043-1.424,0.063-1.902,0.043c-0.496-0.02-0.848-0.104-1.095-0.267
			c-0.249-0.145-0.414-0.369-0.496-0.677c-0.063-0.307-0.103-0.717-0.103-1.25V14.67h-0.871v-1.396h0.91v-1.905h2.422v1.905h1.178
			v1.396h-1.178v2.235c0,0.145,0,0.247,0.02,0.35c0,0.103,0.043,0.185,0.104,0.245c0.038,0.041,0.124,0.081,0.225,0.123
			c0.104,0.021,0.229,0.041,0.416,0.041h0.371L127.86,19.385L127.86,19.385z M133.508,15.634c0-0.143-0.041-0.266-0.104-0.39
			c-0.043-0.143-0.125-0.246-0.229-0.35c-0.104-0.102-0.207-0.163-0.353-0.225c-0.123-0.062-0.269-0.102-0.414-0.102
			c-0.372,0-0.64,0.102-0.846,0.287c-0.188,0.204-0.291,0.45-0.291,0.778h2.235v0.002H133.508z M131.275,16.885
			c0,0.165,0.039,0.328,0.103,0.492c0.063,0.144,0.146,0.267,0.27,0.37c0.104,0.103,0.229,0.185,0.373,0.245
			c0.146,0.063,0.313,0.082,0.479,0.082c0.186,0,0.37-0.04,0.536-0.124c0.165-0.101,0.286-0.224,0.373-0.409h2.339
			c-0.104,0.391-0.271,0.698-0.5,0.964c-0.246,0.245-0.515,0.473-0.822,0.616c-0.313,0.163-0.646,0.287-0.994,0.348
			c-0.375,0.062-0.725,0.103-1.098,0.103c-0.496,0-0.951-0.083-1.386-0.206c-0.414-0.143-0.789-0.349-1.097-0.615
			c-0.33-0.266-0.576-0.595-0.743-1.003c-0.188-0.39-0.271-0.842-0.271-1.355c0-0.511,0.084-0.962,0.271-1.371
			c0.167-0.412,0.414-0.739,0.724-1.028c0.312-0.287,0.684-0.51,1.117-0.676c0.414-0.143,0.891-0.225,1.387-0.225
			c0.558,0,1.074,0.102,1.529,0.287c0.455,0.186,0.825,0.451,1.157,0.779c0.313,0.326,0.539,0.736,0.704,1.188
			c0.167,0.474,0.246,0.983,0.229,1.538H131.275z M136.92,13.274h2.233v1.23h0.021c0.188-0.49,0.414-0.841,0.727-1.065
			c0.311-0.225,0.704-0.348,1.18-0.348c0.063,0,0.104,0,0.166,0.02c0.041,0,0.102,0,0.146,0.021v2.419
			c-0.084,0-0.167-0.021-0.247-0.039c-0.086-0.021-0.167-0.021-0.251-0.021c-0.496,0-0.89,0.123-1.136,0.39
			c-0.25,0.267-0.375,0.736-0.375,1.395v2.109h-2.459v-6.111H136.92z M142.278,10.754h2.459v1.723h-2.459V10.754z M142.278,19.385
			v-6.11h2.459v6.11H142.278z M149.413,14.731c-0.209,0-0.371,0.042-0.518,0.144c-0.146,0.104-0.249,0.227-0.332,0.369
			c-0.082,0.144-0.145,0.308-0.186,0.494c-0.021,0.183-0.043,0.367-0.043,0.531c0,0.594,0.104,1.006,0.291,1.271
			c0.209,0.268,0.455,0.391,0.767,0.391c0.331,0,0.601-0.123,0.788-0.391c0.186-0.266,0.266-0.678,0.266-1.271
			c0-0.449-0.08-0.818-0.266-1.127C149.993,14.855,149.745,14.711,149.413,14.731L149.413,14.731z M145.875,16.392
			c0-0.532,0.08-1.004,0.27-1.413c0.167-0.41,0.395-0.758,0.706-1.026c0.309-0.288,0.679-0.492,1.114-0.636
			c0.414-0.143,0.891-0.225,1.428-0.225c0.535,0,1.013,0.082,1.447,0.225c0.453,0.166,0.809,0.37,1.117,0.657
			c0.312,0.267,0.539,0.614,0.703,1.005c0.165,0.39,0.249,0.819,0.249,1.291c0,0.553-0.104,1.047-0.271,1.457
			c-0.188,0.41-0.438,0.758-0.744,1.023c-0.311,0.287-0.682,0.493-1.118,0.615c-0.437,0.123-0.887,0.206-1.385,0.206
			c-0.496,0-0.951-0.083-1.388-0.206c-0.434-0.122-0.783-0.328-1.113-0.593c-0.313-0.268-0.561-0.595-0.747-0.985
			C145.981,17.377,145.875,16.927,145.875,16.392L145.875,16.392z M161.865,14.814c0.329,0,0.599-0.083,0.808-0.227
			c0.207-0.143,0.31-0.389,0.31-0.758c0-0.206-0.04-0.348-0.146-0.472c-0.104-0.124-0.227-0.206-0.373-0.267
			c-0.145-0.063-0.312-0.104-0.496-0.123c-0.166-0.021-0.334-0.021-0.479-0.021h-0.78v1.866h1.158L161.865,14.814L161.865,14.814z
			 M157.933,19.385V10.98h4.075c1.219,0,2.129,0.268,2.729,0.778c0.6,0.514,0.893,1.19,0.893,2.052c0,0.451-0.063,0.86-0.209,1.229
			c-0.146,0.37-0.352,0.677-0.642,0.943c-0.291,0.245-0.66,0.451-1.097,0.596c-0.434,0.122-0.973,0.204-1.57,0.204h-1.404v2.604
			L157.933,19.385L157.933,19.385z M169.68,10.773h2.464l-2.027,1.725h-1.614L169.68,10.773z M173.033,19.385h-2.274v-0.9
			c-0.146,0.225-0.313,0.391-0.457,0.532c-0.146,0.145-0.309,0.247-0.494,0.328c-0.188,0.083-0.373,0.144-0.579,0.166
			c-0.208,0.04-0.435,0.061-0.685,0.061c-0.682,0-1.219-0.206-1.612-0.637c-0.412-0.409-0.601-1.065-0.601-1.948v-3.712h2.441v3.304
			c0,0.408,0.083,0.697,0.227,0.861c0.146,0.164,0.354,0.245,0.661,0.245c0.353,0,0.603-0.123,0.726-0.391
			c0.145-0.244,0.207-0.613,0.207-1.085v-2.935h2.441L173.033,19.385L173.033,19.385z M177.602,17.809
			c0.208,0,0.373-0.041,0.498-0.124c0.142-0.081,0.246-0.205,0.332-0.349c0.08-0.123,0.142-0.286,0.164-0.451
			c0.043-0.185,0.043-0.349,0.043-0.512c0-0.164,0-0.327-0.043-0.492c-0.04-0.165-0.102-0.329-0.164-0.451
			c-0.084-0.124-0.189-0.246-0.332-0.328c-0.125-0.081-0.29-0.123-0.498-0.123c-0.184,0-0.329,0.042-0.473,0.123
			c-0.125,0.082-0.229,0.185-0.313,0.308c-0.086,0.123-0.145,0.286-0.188,0.45c-0.041,0.143-0.063,0.309-0.063,0.471
			c0,0.165,0.021,0.329,0.063,0.514c0.021,0.164,0.086,0.33,0.166,0.473c0.084,0.143,0.188,0.265,0.312,0.348
			C177.232,17.768,177.395,17.809,177.602,17.809L177.602,17.809z M176.629,13.892c0.25-0.288,0.521-0.492,0.811-0.617
			c0.266-0.122,0.598-0.183,0.97-0.183c0.394,0,0.767,0.082,1.095,0.246c0.313,0.162,0.603,0.367,0.852,0.654
			c0.229,0.289,0.412,0.638,0.537,1.028c0.146,0.389,0.203,0.819,0.203,1.27s-0.038,0.884-0.141,1.271
			c-0.104,0.41-0.271,0.759-0.5,1.047c-0.225,0.286-0.515,0.533-0.867,0.696c-0.352,0.164-0.785,0.267-1.28,0.267
			c-0.519,0-0.931-0.103-1.222-0.308c-0.291-0.206-0.52-0.449-0.684-0.738h-0.02v0.859h-2.193v-8.405h2.439V13.892L176.629,13.892z
			 M182.215,19.385V10.98h2.439v8.405H182.215z M186.124,10.754h2.461v1.723h-2.461V10.754z M186.124,19.385v-6.11h2.461v6.11
			H186.124z M194.108,15.614c0-0.268-0.082-0.472-0.249-0.636c-0.165-0.164-0.371-0.247-0.64-0.247
			c-0.225,0-0.414,0.042-0.562,0.163c-0.123,0.104-0.245,0.226-0.329,0.392c-0.063,0.165-0.123,0.348-0.145,0.554
			c-0.021,0.183-0.041,0.388-0.041,0.552c0,0.472,0.104,0.843,0.27,1.129c0.184,0.267,0.451,0.411,0.807,0.411
			c0.332,0,0.56-0.103,0.681-0.268c0.146-0.185,0.229-0.409,0.271-0.656h2.479c-0.062,0.472-0.185,0.883-0.392,1.189
			c-0.188,0.328-0.457,0.595-0.767,0.801c-0.309,0.206-0.659,0.347-1.032,0.43c-0.396,0.083-0.806,0.144-1.24,0.144
			c-0.496,0-0.953-0.083-1.383-0.206c-0.438-0.143-0.809-0.349-1.117-0.615c-0.313-0.266-0.562-0.595-0.748-1.003
			c-0.187-0.39-0.268-0.842-0.268-1.355c0-0.532,0.081-0.982,0.268-1.394c0.164-0.41,0.418-0.758,0.725-1.046
			c0.311-0.266,0.684-0.492,1.116-0.636c0.437-0.143,0.892-0.225,1.407-0.225c0.414,0,0.808,0.041,1.201,0.143
			c0.391,0.082,0.742,0.248,1.054,0.43c0.309,0.206,0.56,0.474,0.766,0.781c0.188,0.328,0.31,0.716,0.373,1.169L194.108,15.614
			L194.108,15.614z M201.118,14.731c-0.203,0-0.371,0.042-0.517,0.144c-0.144,0.104-0.247,0.227-0.33,0.369
			c-0.084,0.144-0.146,0.308-0.185,0.494c-0.023,0.183-0.043,0.367-0.043,0.531c0,0.594,0.103,1.006,0.291,1.271
			c0.205,0.268,0.453,0.391,0.768,0.391c0.329,0,0.597-0.123,0.785-0.391c0.184-0.266,0.267-0.678,0.267-1.271
			c0-0.449-0.083-0.818-0.267-1.127C201.698,14.855,201.447,14.711,201.118,14.731L201.118,14.731z M197.584,16.392
			c0-0.532,0.102-1.004,0.269-1.413c0.163-0.41,0.392-0.758,0.704-1.026c0.309-0.288,0.683-0.492,1.113-0.636
			c0.437-0.143,0.91-0.225,1.433-0.225c0.532,0,1.008,0.082,1.465,0.225c0.438,0.166,0.808,0.37,1.099,0.657
			c0.309,0.267,0.531,0.614,0.698,1.005c0.167,0.39,0.251,0.819,0.251,1.291c0,0.553-0.084,1.047-0.271,1.457
			c-0.187,0.41-0.434,0.758-0.741,1.023c-0.31,0.287-0.685,0.493-1.118,0.615c-0.436,0.123-0.891,0.206-1.383,0.206
			c-0.5,0-0.955-0.083-1.391-0.206c-0.412-0.122-0.783-0.328-1.117-0.593c-0.309-0.268-0.557-0.595-0.725-0.985
			C197.685,17.377,197.584,16.927,197.584,16.392L197.584,16.392z M209.827,19.385V10.98h6.598v1.969h-3.805v1.517h3.038v1.969
			h-3.038v2.951L209.827,19.385L209.827,19.385z M217.54,10.754h2.463v1.723h-2.463V10.754z M217.54,19.385v-6.11h2.463v6.11H217.54
			z M223.459,17.479c0,0.247,0.102,0.432,0.269,0.575c0.167,0.123,0.373,0.185,0.599,0.185c0.186,0,0.37-0.042,0.537-0.123
			c0.167-0.062,0.249-0.205,0.249-0.432c0-0.164-0.104-0.287-0.29-0.368c-0.188-0.082-0.436-0.143-0.706-0.206
			c-0.282-0.061-0.575-0.124-0.905-0.184c-0.332-0.083-0.623-0.188-0.91-0.31c-0.271-0.143-0.521-0.327-0.705-0.553
			c-0.188-0.244-0.27-0.552-0.27-0.944c0-0.389,0.08-0.717,0.27-0.982c0.185-0.268,0.416-0.474,0.705-0.615
			c0.287-0.164,0.6-0.266,0.949-0.329c0.334-0.061,0.664-0.102,0.993-0.102c0.33,0,0.685,0.02,1.035,0.082
			c0.33,0.041,0.659,0.123,0.949,0.266c0.29,0.145,0.521,0.35,0.728,0.594c0.184,0.248,0.307,0.575,0.348,0.987h-2.23
			c-0.021-0.187-0.105-0.33-0.229-0.452c-0.125-0.104-0.288-0.144-0.496-0.144c-0.206,0-0.375,0.04-0.496,0.102
			c-0.124,0.062-0.21,0.185-0.21,0.329c0,0.143,0.108,0.246,0.29,0.328c0.21,0.082,0.437,0.143,0.727,0.204
			c0.309,0.063,0.622,0.145,0.951,0.227c0.329,0.061,0.643,0.184,0.936,0.327c0.283,0.123,0.533,0.328,0.718,0.554
			c0.188,0.246,0.29,0.555,0.29,0.923c0,0.656-0.269,1.168-0.805,1.56c-0.537,0.388-1.386,0.594-2.522,0.594
			c-0.353,0-0.704-0.041-1.058-0.103c-0.35-0.061-0.679-0.164-0.969-0.327c-0.292-0.144-0.521-0.369-0.727-0.637
			c-0.186-0.266-0.309-0.614-0.332-1.025L223.459,17.479L223.459,17.479z M232.741,15.614c-0.016-0.268-0.104-0.472-0.268-0.636
			c-0.146-0.164-0.373-0.247-0.643-0.247c-0.228,0-0.414,0.042-0.537,0.163c-0.145,0.104-0.271,0.226-0.332,0.392
			c-0.082,0.165-0.145,0.348-0.164,0.554c-0.021,0.183-0.021,0.388-0.021,0.552c0,0.472,0.084,0.843,0.247,1.129
			c0.187,0.267,0.455,0.411,0.808,0.411c0.332,0,0.563-0.103,0.707-0.268c0.122-0.185,0.225-0.409,0.266-0.656h2.459
			c-0.062,0.472-0.182,0.883-0.368,1.189c-0.208,0.328-0.478,0.595-0.787,0.801s-0.642,0.347-1.033,0.43
			c-0.396,0.083-0.807,0.144-1.241,0.144c-0.494,0-0.951-0.083-1.385-0.206c-0.436-0.143-0.807-0.349-1.117-0.615
			c-0.314-0.266-0.559-0.595-0.744-1.003c-0.188-0.39-0.271-0.842-0.271-1.355c0-0.532,0.084-0.982,0.271-1.394
			c0.164-0.41,0.416-0.758,0.722-1.046c0.311-0.266,0.684-0.492,1.118-0.636c0.437-0.143,0.912-0.225,1.406-0.225
			c0.416,0,0.807,0.041,1.198,0.143c0.394,0.082,0.747,0.248,1.058,0.43c0.311,0.206,0.558,0.474,0.764,0.781
			c0.21,0.328,0.333,0.716,0.375,1.169L232.741,15.614L232.741,15.614z M239.404,18.178c0.206,0,0.392-0.022,0.538-0.104
			c0.145-0.082,0.268-0.184,0.35-0.327c0.084-0.144,0.146-0.288,0.166-0.472c0.043-0.186,0.043-0.391,0.022-0.595
			c-0.188,0.102-0.414,0.163-0.622,0.204c-0.206,0.042-0.412,0.083-0.602,0.144c-0.184,0.041-0.33,0.124-0.455,0.206
			c-0.12,0.102-0.184,0.245-0.184,0.43c0,0.165,0.081,0.286,0.204,0.391C238.969,18.137,239.155,18.178,239.404,18.178
			L239.404,18.178z M240.728,19.385l-0.104-0.653c-0.353,0.326-0.703,0.532-1.078,0.653c-0.373,0.126-0.783,0.187-1.237,0.187
			c-0.312,0-0.583-0.041-0.851-0.123c-0.267-0.063-0.494-0.185-0.703-0.327c-0.205-0.165-0.352-0.349-0.476-0.576
			c-0.123-0.225-0.185-0.511-0.185-0.818c0-0.472,0.101-0.821,0.332-1.087c0.205-0.267,0.476-0.452,0.805-0.594
			c0.329-0.125,0.684-0.226,1.057-0.269c0.395-0.062,0.74-0.103,1.053-0.144c0.332-0.041,0.603-0.102,0.83-0.183
			c0.205-0.063,0.31-0.207,0.31-0.392c0-0.122-0.022-0.204-0.083-0.267c-0.063-0.062-0.125-0.123-0.208-0.142
			c-0.08-0.043-0.165-0.063-0.269-0.083c-0.084,0-0.166-0.021-0.227-0.021c-0.084,0-0.188,0.021-0.27,0.021
			c-0.105,0.02-0.188,0.04-0.271,0.083c-0.082,0.039-0.167,0.102-0.208,0.183c-0.063,0.083-0.104,0.187-0.126,0.309h-2.355
			c0-0.328,0.063-0.616,0.188-0.861c0.124-0.248,0.31-0.472,0.603-0.637c0.266-0.185,0.597-0.328,1.029-0.41
			c0.412-0.102,0.951-0.143,1.551-0.143c0.725,0,1.306,0.061,1.717,0.183c0.414,0.146,0.725,0.31,0.933,0.535
			c0.206,0.224,0.329,0.491,0.392,0.799c0.041,0.309,0.063,0.657,0.063,1.025v2.851c0,0.184,0.023,0.33,0.041,0.431
			c0.043,0.102,0.126,0.227,0.292,0.349v0.121H240.728z M244.385,19.385V10.98h2.443v8.405H244.385z"/>
		<path fill="#636363" d="M89.558,32.952v-9.556h2.48c1.015,0,1.739,0.308,2.174,0.92c0.309,0.453,0.453,1.027,0.453,1.728
			c0,0.798-0.247,1.454-0.723,1.927c-0.496,0.473-1.159,0.717-2.027,0.717h-1.8v4.267L89.558,32.952L89.558,32.952z M90.114,28.236
			h1.863c0.621,0,1.117-0.164,1.489-0.514c0.414-0.391,0.641-0.943,0.641-1.681c0-0.698-0.187-1.231-0.539-1.621
			c-0.352-0.392-0.869-0.573-1.51-0.573h-1.945L90.114,28.236L90.114,28.236z M99.981,29.445c0,1.13-0.167,2.011-0.476,2.586
			c-0.392,0.717-1.035,1.086-1.945,1.086c-1.529,0-2.315-1.23-2.315-3.672c0-1.148,0.167-2.008,0.478-2.586
			c0.391-0.715,1.033-1.086,1.92-1.086C99.195,25.773,99.981,27.007,99.981,29.445L99.981,29.445z M99.4,29.445
			c0-1.065-0.124-1.846-0.391-2.358c-0.291-0.573-0.745-0.84-1.406-0.84c-0.643,0-1.118,0.267-1.407,0.84
			c-0.25,0.515-0.374,1.293-0.374,2.358c0,1.068,0.124,1.846,0.374,2.359c0.289,0.571,0.764,0.84,1.407,0.84
			c0.661,0,1.116-0.269,1.406-0.84C99.276,31.291,99.4,30.514,99.4,29.445L99.4,29.445z M105.025,32.952v-1.354l0,0
			c-0.185,1.006-0.784,1.521-1.797,1.521c-1.47,0-2.215-1.229-2.215-3.688c0-1.171,0.146-2.054,0.457-2.627
			c0.373-0.677,0.949-1.027,1.776-1.027c0.871,0,1.451,0.475,1.778,1.396l0,0v-3.772h0.521v9.557L105.025,32.952L105.025,32.952z
			 M101.574,29.428c0,2.15,0.578,3.217,1.716,3.217c1.159,0,1.735-1.064,1.735-3.217c0-2.135-0.576-3.181-1.758-3.181
			c-0.599,0-1.033,0.245-1.28,0.76C101.718,27.54,101.574,28.34,101.574,29.428L101.574,29.428z M107.322,28.954h3.433
			c0-1.806-0.558-2.707-1.675-2.707c-0.681,0-1.157,0.327-1.467,1.005C107.427,27.703,107.322,28.277,107.322,28.954L107.322,28.954
			z M111.316,29.404h-3.993c0,0.923,0.062,1.602,0.208,2.052c0.247,0.8,0.72,1.188,1.449,1.188c0.638,0,1.115-0.269,1.426-0.801
			c0.208-0.35,0.309-0.76,0.309-1.189h0.496c0,0.637-0.163,1.171-0.496,1.621c-0.391,0.555-0.949,0.842-1.675,0.842
			c-0.869,0-1.47-0.348-1.817-1.047c-0.313-0.594-0.478-1.537-0.478-2.83c0-1.088,0.208-1.947,0.601-2.543
			c0.391-0.613,0.992-0.924,1.778-0.924c0.784,0,1.362,0.33,1.714,0.965C111.149,27.334,111.316,28.216,111.316,29.404
			L111.316,29.404z M112.433,32.952v-7.015h0.496v1.23l0,0c0.309-0.923,0.91-1.396,1.799-1.396h0.311v0.475h-0.311
			c-0.558,0-1.015,0.229-1.346,0.695c-0.29,0.41-0.453,0.925-0.453,1.561v4.449L112.433,32.952L112.433,32.952z M119.133,30.145
			v0.308c0,1.454,0.517,2.192,1.57,2.192c1.097,0,1.634-0.613,1.634-1.886v-7.362h0.581v7.362c0,0.778-0.208,1.354-0.581,1.743
			c-0.391,0.41-0.928,0.615-1.591,0.615c-0.807,0-1.385-0.268-1.739-0.779c-0.288-0.451-0.432-1.107-0.432-1.968v-0.228h0.558
			V30.145z M128.542,25.938v7.016h-0.516v-1.064l0,0c-0.331,0.818-0.93,1.229-1.818,1.229c-0.539,0-0.953-0.165-1.283-0.451
			c-0.332-0.328-0.517-0.821-0.517-1.456v-5.271h0.517v5.045c0,1.107,0.478,1.66,1.406,1.66c0.521,0,0.951-0.205,1.262-0.653
			c0.289-0.411,0.436-0.925,0.436-1.562v-4.49h0.516v-0.002H128.542z M133.758,32.952v-1.354l0,0
			c-0.188,1.006-0.787,1.521-1.803,1.521c-1.471,0-2.214-1.229-2.214-3.688c0-1.171,0.165-2.054,0.478-2.627
			c0.352-0.677,0.953-1.027,1.779-1.027c0.846,0,1.446,0.475,1.76,1.396l0,0v-3.772h0.516v9.557L133.758,32.952L133.758,32.952z
			 M130.322,29.428c0,2.15,0.56,3.217,1.716,3.217c1.139,0,1.721-1.064,1.721-3.217c0-2.135-0.582-3.181-1.76-3.181
			c-0.58,0-1.015,0.245-1.283,0.76C130.445,27.54,130.322,28.34,130.322,29.428L130.322,29.428z M135.719,32.952v-7.015h0.518v7.015
			H135.719z M135.719,24.75v-1.354h0.518v1.354H135.719z M141.389,30.654h0.576c0,0.533-0.146,1.025-0.414,1.477
			c-0.393,0.658-0.99,0.986-1.779,0.986c-0.848,0-1.467-0.369-1.816-1.067c-0.312-0.594-0.479-1.475-0.479-2.646
			c0-2.42,0.809-3.631,2.377-3.631c0.747,0,1.305,0.311,1.675,0.904c0.249,0.407,0.394,0.84,0.394,1.27h-0.578
			c0-0.348-0.104-0.676-0.291-1.004c-0.268-0.471-0.682-0.696-1.198-0.696c-1.198,0-1.797,1.065-1.797,3.198
			c0,1.107,0.124,1.908,0.391,2.42c0.29,0.513,0.767,0.779,1.406,0.779c0.563,0,0.978-0.269,1.243-0.801
			C141.305,31.477,141.389,31.086,141.389,30.654L141.389,30.654z M142.959,32.952v-7.015h0.517v7.015H142.959z M142.959,24.75
			v-1.354h0.517v1.354H142.959z M148.708,27.621v4.49c0,0.307,0.104,0.451,0.313,0.451c0.145,0,0.249-0.021,0.331-0.063v0.41
			c-0.123,0.082-0.292,0.121-0.539,0.121c-0.146,0-0.269-0.063-0.392-0.184c-0.146-0.146-0.229-0.33-0.229-0.596V31.82h-0.021
			c-0.104,0.369-0.332,0.678-0.662,0.924c-0.332,0.246-0.723,0.369-1.198,0.369c-0.578,0-1.035-0.205-1.347-0.596
			c-0.269-0.328-0.412-0.802-0.412-1.373c0-1.025,0.477-1.662,1.43-1.931l1.527-0.409c0.289-0.08,0.479-0.203,0.578-0.367
			c0.062-0.123,0.104-0.35,0.104-0.656c0-1.026-0.457-1.538-1.365-1.538c-1.012,0-1.53,0.554-1.53,1.7h-0.517
			c0-1.455,0.663-2.174,2.009-2.174C148.068,25.773,148.708,26.391,148.708,27.621L148.708,27.621z M148.192,30.307v-1.434h-0.021
			c-0.123,0.163-0.414,0.328-0.889,0.449l-1.054,0.287c-0.747,0.205-1.12,0.718-1.12,1.539c0,1.004,0.436,1.496,1.305,1.496
			c0.581,0,1.035-0.207,1.321-0.613C148.047,31.6,148.192,31.025,148.192,30.307L148.192,30.307z M150.219,32.952v-9.556h0.517
			v9.556H150.219z M155.577,29.527v-0.45h2.545v0.45H155.577z M163.25,30.001v0.49c0,0.637,0.205,1.151,0.6,1.559
			c0.371,0.39,0.91,0.595,1.593,0.595c0.663,0,1.198-0.205,1.614-0.613c0.412-0.411,0.619-0.924,0.619-1.538
			c0-0.597-0.166-1.046-0.477-1.354c-0.246-0.266-0.681-0.49-1.279-0.695l-1.1-0.391c-0.661-0.227-1.158-0.513-1.47-0.841
			c-0.329-0.37-0.494-0.86-0.494-1.498c0-0.758,0.247-1.353,0.722-1.806c0.479-0.45,1.098-0.676,1.863-0.676
			c1.717,0,2.585,0.861,2.585,2.584h-0.579c0-1.414-0.643-2.133-1.945-2.133c-0.621,0-1.095,0.145-1.445,0.432
			c-0.416,0.328-0.622,0.861-0.622,1.559c0,0.883,0.455,1.518,1.405,1.846l1.43,0.494c0.684,0.223,1.158,0.51,1.445,0.859
			c0.352,0.367,0.519,0.9,0.519,1.577c0,0.821-0.271,1.456-0.806,1.948c-0.539,0.473-1.199,0.719-1.985,0.719
			c-0.994,0-1.737-0.309-2.215-0.902c-0.37-0.451-0.537-0.964-0.537-1.58v-0.634H163.25z M173.197,27.621v4.49
			c0,0.307,0.103,0.451,0.312,0.451c0.123,0,0.228-0.021,0.31-0.063v0.41c-0.104,0.082-0.288,0.121-0.537,0.121
			c-0.124,0-0.247-0.063-0.371-0.184c-0.146-0.146-0.229-0.33-0.229-0.596V31.82h-0.02c-0.125,0.369-0.33,0.678-0.662,0.924
			c-0.351,0.246-0.742,0.369-1.199,0.369c-0.58,0-1.033-0.205-1.344-0.596c-0.291-0.328-0.414-0.802-0.414-1.373
			c0-1.025,0.476-1.662,1.428-1.931l1.529-0.409c0.271-0.08,0.477-0.203,0.582-0.367c0.062-0.123,0.1-0.35,0.1-0.656
			c0-1.026-0.452-1.538-1.361-1.538c-1.033,0-1.552,0.554-1.552,1.7h-0.498c0-1.455,0.663-2.174,1.987-2.174
			C172.558,25.773,173.197,26.391,173.197,27.621L173.197,27.621z M172.678,30.307v-1.434h-0.02
			c-0.125,0.163-0.412,0.328-0.908,0.449l-1.033,0.287c-0.746,0.205-1.121,0.718-1.121,1.539c0,1.004,0.438,1.496,1.306,1.496
			c0.577,0,1.015-0.207,1.324-0.613C172.535,31.6,172.678,31.025,172.678,30.307L172.678,30.307z M174.647,32.952v-7.015h0.516
			v1.067l0,0c0.332-0.819,0.935-1.231,1.801-1.231c0.539,0,0.973,0.164,1.279,0.451c0.354,0.332,0.521,0.82,0.521,1.437v5.291
			h-0.498v-5.044c0-1.107-0.477-1.661-1.406-1.661c-0.538,0-0.951,0.205-1.24,0.637c-0.313,0.409-0.457,0.942-0.457,1.577v4.491
			H174.647z M179.566,26.391v-0.451h0.955V23.87h0.515v2.069h1.18v0.451h-1.18v5.414c0,0.514,0.208,0.76,0.622,0.76
			c0.249,0,0.453-0.021,0.64-0.084v0.473c-0.246,0.042-0.494,0.082-0.742,0.082c-0.687,0-1.032-0.409-1.032-1.189v-5.453h-0.956
			L179.566,26.391L179.566,26.391z M182.959,32.952v-7.015h0.521v7.015H182.959z M182.959,24.75v-1.354h0.521v1.354H182.959z
			 M188.688,27.621v4.49c0,0.307,0.107,0.451,0.313,0.451c0.146,0,0.248-0.021,0.33-0.063v0.41
			c-0.104,0.082-0.291,0.121-0.535,0.121c-0.146,0-0.271-0.063-0.396-0.184c-0.146-0.146-0.229-0.33-0.229-0.596V31.82h-0.021
			c-0.103,0.369-0.329,0.678-0.661,0.924c-0.333,0.246-0.725,0.369-1.182,0.369c-0.598,0-1.033-0.205-1.362-0.596
			c-0.269-0.328-0.414-0.802-0.414-1.373c0-1.025,0.476-1.662,1.425-1.931l1.533-0.409c0.286-0.08,0.477-0.203,0.578-0.367
			c0.083-0.123,0.104-0.35,0.104-0.656c0-1.026-0.455-1.538-1.367-1.538c-1.014,0-1.528,0.554-1.528,1.7h-0.519
			c0-1.455,0.664-2.174,2.009-2.174C188.047,25.773,188.688,26.391,188.688,27.621L188.688,27.621z M188.17,30.307v-1.434h-0.021
			c-0.124,0.163-0.412,0.328-0.89,0.449l-1.034,0.287c-0.743,0.205-1.116,0.718-1.116,1.539c0,1.004,0.416,1.496,1.282,1.496
			c0.579,0,1.034-0.207,1.346-0.613C188.027,31.6,188.17,31.025,188.17,30.307L188.17,30.307z M190.549,29.404
			c0,2.052,0.58,3.076,1.716,3.076c1.161,0,1.739-1.045,1.739-3.181c0-2.05-0.56-3.055-1.676-3.055
			c-0.578,0-1.016,0.228-1.302,0.696C190.717,27.438,190.549,28.258,190.549,29.404L190.549,29.404z M194.521,25.938v6.625
			c0,0.924-0.167,1.619-0.476,2.07c-0.373,0.514-0.973,0.779-1.799,0.779c-0.767,0-1.306-0.246-1.635-0.738
			c-0.188-0.285-0.289-0.613-0.289-1.004h0.516c0,0.391,0.125,0.678,0.354,0.9c0.268,0.268,0.618,0.391,1.114,0.391
			c0.579,0,1.017-0.186,1.282-0.531c0.27-0.33,0.414-0.883,0.414-1.621v-1.291h-0.041c-0.309,0.963-0.93,1.436-1.861,1.436
			c-1.406,0-2.109-1.188-2.109-3.549c0-1.106,0.145-1.945,0.414-2.52c0.354-0.738,0.953-1.109,1.821-1.109
			c0.866,0,1.468,0.451,1.735,1.334h0.041v-1.17h0.519V25.938z M200.458,29.445c0,1.13-0.164,2.011-0.478,2.586
			c-0.392,0.717-1.031,1.086-1.92,1.086c-1.552,0-2.339-1.23-2.339-3.672c0-1.148,0.168-2.008,0.475-2.586
			c0.393-0.715,1.037-1.086,1.947-1.086C199.67,25.773,200.458,27.007,200.458,29.445L200.458,29.445z M199.879,29.445
			c0-1.065-0.125-1.846-0.373-2.358c-0.291-0.573-0.768-0.84-1.406-0.84c-0.663,0-1.12,0.267-1.408,0.84
			c-0.268,0.515-0.393,1.293-0.393,2.358c0,1.068,0.125,1.846,0.393,2.359c0.288,0.571,0.745,0.84,1.408,0.84
			c0.64,0,1.115-0.269,1.406-0.84C199.754,31.291,199.879,30.514,199.879,29.445L199.879,29.445z M208.75,32.952v-1.354l0,0
			c-0.186,1.006-0.785,1.521-1.8,1.521c-1.468,0-2.21-1.229-2.21-3.688c0-1.171,0.145-2.054,0.453-2.627
			c0.371-0.677,0.953-1.027,1.777-1.027c0.869,0,1.449,0.475,1.779,1.396l0,0v-3.772h0.521v9.557L208.75,32.952L208.75,32.952z
			 M205.295,29.428c0,2.15,0.582,3.217,1.717,3.217c1.158,0,1.736-1.064,1.736-3.217c0-2.135-0.599-3.181-1.758-3.181
			c-0.599,0-1.033,0.245-1.281,0.76C205.441,27.54,205.295,28.34,205.295,29.428L205.295,29.428z M211.047,28.954h3.434
			c0-1.806-0.559-2.707-1.676-2.707c-0.682,0-1.178,0.327-1.467,1.005C211.15,27.703,211.047,28.277,211.047,28.954L211.047,28.954z
			 M215.04,29.404h-3.992c0,0.923,0.063,1.602,0.205,2.052c0.248,0.8,0.727,1.188,1.447,1.188c0.645,0,1.118-0.269,1.43-0.801
			c0.205-0.35,0.31-0.76,0.31-1.189h0.498c0,0.637-0.163,1.171-0.498,1.621c-0.392,0.555-0.949,0.842-1.673,0.842
			c-0.869,0-1.469-0.348-1.821-1.047c-0.31-0.594-0.478-1.537-0.478-2.83c0-1.088,0.207-1.947,0.603-2.543
			c0.392-0.613,0.994-0.924,1.776-0.924c0.787,0,1.365,0.33,1.718,0.965C214.874,27.334,215.04,28.216,215.04,29.404L215.04,29.404z
			 M216.197,32.952v-9.556h0.519v9.556H216.197z M221.51,32.952v-9.556h4.613v0.492h-4.031v3.813h3.763v0.513h-3.763v4.224h4.158
			v0.515H221.51z M230.674,27.908h-0.518v-0.205c0-0.965-0.434-1.456-1.322-1.456c-0.91,0-1.367,0.431-1.367,1.293
			c0,0.655,0.353,1.128,1.057,1.373l1.095,0.409c0.849,0.309,1.284,0.943,1.284,1.865c0,0.556-0.208,1.025-0.602,1.375
			c-0.394,0.369-0.868,0.555-1.446,0.555c-1.408,0-2.091-0.739-2.091-2.217v-0.185h0.519v0.226c0,1.129,0.519,1.703,1.573,1.703
			c0.496,0,0.869-0.145,1.115-0.432c0.229-0.27,0.352-0.597,0.352-1.025c0-0.674-0.352-1.146-1.054-1.436l-1.035-0.408
			c-0.887-0.351-1.326-0.926-1.326-1.744c0-0.574,0.188-1.025,0.539-1.334c0.354-0.328,0.808-0.492,1.388-0.492
			c1.219,0,1.84,0.656,1.84,1.93V27.908L230.674,27.908z M231.315,26.391v-0.451h0.953V23.87h0.517v2.069h1.179v0.451h-1.179v5.414
			c0,0.514,0.206,0.76,0.62,0.76c0.249,0,0.457-0.021,0.645-0.084v0.473c-0.271,0.042-0.5,0.082-0.748,0.082
			c-0.684,0-1.031-0.409-1.031-1.189v-5.453h-0.954L231.315,26.391L231.315,26.391z M235.04,28.954h3.434
			c0-1.806-0.559-2.707-1.655-2.707c-0.704,0-1.177,0.327-1.487,1.005C235.141,27.703,235.04,28.277,235.04,28.954L235.04,28.954z
			 M239.027,29.404h-3.989c0,0.923,0.063,1.602,0.211,2.052c0.244,0.8,0.719,1.188,1.444,1.188c0.64,0,1.118-0.269,1.429-0.801
			c0.203-0.35,0.312-0.76,0.312-1.189h0.515c0,0.637-0.163,1.171-0.49,1.621c-0.416,0.555-0.979,0.842-1.701,0.842
			c-0.869,0-1.467-0.348-1.818-1.047c-0.311-0.594-0.455-1.537-0.455-2.83c0-1.088,0.186-1.947,0.581-2.543
			c0.394-0.613,0.991-0.924,1.778-0.924c0.783,0,1.363,0.33,1.713,0.965C238.883,27.334,239.027,28.216,239.027,29.404
			L239.027,29.404z M240.147,32.952v-7.015h0.518v1.23l0,0c0.291-0.923,0.889-1.396,1.779-1.396h0.309v0.475h-0.309
			c-0.561,0-1.013,0.229-1.344,0.695c-0.292,0.41-0.438,0.925-0.438,1.561v4.449L240.147,32.952L240.147,32.952z M247.946,29.445
			c0,1.13-0.148,2.011-0.479,2.586c-0.373,0.717-1.034,1.086-1.92,1.086c-1.551,0-2.319-1.23-2.319-3.672
			c0-1.148,0.146-2.008,0.455-2.586c0.395-0.715,1.034-1.086,1.946-1.086C247.178,25.773,247.946,27.007,247.946,29.445
			L247.946,29.445z M247.385,29.445c0-1.065-0.146-1.846-0.394-2.358c-0.29-0.573-0.764-0.84-1.405-0.84
			c-0.641,0-1.117,0.267-1.406,0.84c-0.271,0.515-0.393,1.293-0.393,2.358c0,1.068,0.121,1.846,0.393,2.359
			c0.289,0.571,0.767,0.84,1.406,0.84c0.643,0,1.115-0.269,1.405-0.84C247.24,31.291,247.385,30.514,247.385,29.445L247.385,29.445z
			"/>
		<g>
			<path fill="#636363" d="M61.346,10.91c-2.205-1.9-5.542-2.843-10.035-2.843h-5.875h-9.214H33.05l-5.524,19.351L22.01,8.067H9.615
				v31.025h9.213V28.577l-0.212-4.828l-0.432-4.563h0.082l5.699,19.906h7.13l5.127-17.938v8.456v9.482h9.214h1.042v-9.646h5.174
				c2.259,0,4.205-0.256,5.828-0.76c1.624-0.502,2.971-1.226,4.041-2.176c1.069-0.951,1.863-2.093,2.37-3.447
				c0.508-1.354,0.766-2.86,0.766-4.525C64.657,15.347,63.55,12.803,61.346,10.91z M53.718,21.408
				c-0.765,0.53-1.761,0.796-2.979,0.796h-4.261v-6.896h2.915c0.553,0,1.145,0.038,1.779,0.101c0.646,0.074,1.236,0.228,1.79,0.458
				c0.545,0.228,1.005,0.559,1.366,0.987c0.359,0.429,0.543,1.005,0.543,1.729C54.871,19.936,54.484,20.868,53.718,21.408z"/>
			<g>
				<polygon fill="#9B9B9B" points="18.828,28.921 9.615,25.479 9.615,39.094 18.828,39.094 				"/>
				<polygon fill="#9B9B9B" points="36.222,35.421 36.222,39.094 45.436,39.094 46.057,39.094 				"/>
				<polygon fill="#9B9B9B" points="32.538,34.044 21.32,29.854 23.965,39.094 31.095,39.094 				"/>
			</g>
			<g>
				<g>
					<rect x="56.034" y="7.978" fill="#636363" width="0.24" height="31.125"/>
					<rect x="55.873" y="7.813" fill="#636363" width="0.562" height="31.449"/>
				</g>
				<g>
					<rect x="57.048" y="7.978" fill="#636363" width="0.241" height="31.125"/>
					<rect x="56.887" y="7.813" fill="#636363" width="0.562" height="31.449"/>
				</g>
				<g>
					<rect x="58.063" y="7.978" fill="#636363" width="0.241" height="31.125"/>
					<rect x="57.901" y="7.813" fill="#636363" width="0.563" height="31.449"/>
				</g>
				<g>
					<rect x="59.077" y="7.978" fill="#636363" width="0.24" height="31.125"/>
					<rect x="58.917" y="7.813" fill="#636363" width="0.562" height="31.449"/>
				</g>
				<g>
					<rect x="60.092" y="7.978" fill="#636363" width="0.239" height="31.125"/>
					<rect x="59.93" y="7.813" fill="#636363" width="0.563" height="31.449"/>
				</g>
				<g>
					<rect x="61.106" y="7.978" fill="#636363" width="0.24" height="31.125"/>
					<rect x="60.944" y="7.813" fill="#636363" width="0.564" height="31.449"/>
				</g>
				<g>
					<rect x="62.12" y="7.978" fill="#636363" width="0.24" height="31.125"/>
					<rect x="61.96" y="7.813" fill="#636363" width="0.563" height="31.449"/>
				</g>
				<g>
					<rect x="63.134" y="7.978" fill="#636363" width="0.241" height="31.125"/>
					<rect x="62.974" y="7.813" fill="#636363" width="0.563" height="31.449"/>
				</g>
				<g>
					<rect x="64.15" y="7.978" fill="#636363" width="0.24" height="31.125"/>
					<rect x="63.988" y="7.813" fill="#636363" width="0.562" height="31.449"/>
				</g>
				<g>
					<rect x="64.15" y="7.978" fill="#636363" width="0.24" height="31.125"/>
					<rect x="63.988" y="7.813" fill="#636363" width="0.562" height="31.449"/>
				</g>
				<g>
					<rect x="65.165" y="7.978" fill="#636363" width="0.24" height="31.125"/>
					<rect x="65.003" y="7.813" fill="#636363" width="0.562" height="31.449"/>
				</g>
				<g>
					<rect x="66.178" y="21.024" fill="#636363" width="0.241" height="7.205"/>
					<rect x="66.018" y="20.862" fill="#636363" width="0.562" height="7.527"/>
				</g>
				<g>
					<rect x="66.178" y="7.978" fill="#636363" width="0.241" height="7.214"/>
					<rect x="66.018" y="7.813" fill="#636363" width="0.562" height="7.538"/>
				</g>
				<g>
					<rect x="67.193" y="21.024" fill="#636363" width="0.24" height="7.205"/>
					<rect x="67.032" y="20.862" fill="#636363" width="0.562" height="7.527"/>
				</g>
				<g>
					<rect x="67.193" y="7.978" fill="#636363" width="0.24" height="7.214"/>
					<rect x="67.032" y="7.813" fill="#636363" width="0.562" height="7.538"/>
				</g>
				<g>
					<rect x="68.208" y="21.024" fill="#636363" width="0.24" height="7.205"/>
					<rect x="68.047" y="20.862" fill="#636363" width="0.562" height="7.527"/>
				</g>
				<g>
					<rect x="68.208" y="7.978" fill="#636363" width="0.24" height="7.195"/>
					<rect x="68.047" y="7.813" fill="#636363" width="0.562" height="7.52"/>
				</g>
				<g>
					<rect x="69.222" y="21.024" fill="#636363" width="0.239" height="7.205"/>
					<rect x="69.061" y="20.862" fill="#636363" width="0.563" height="7.527"/>
				</g>
				<g>
					<rect x="69.222" y="7.978" fill="#636363" width="0.239" height="7.214"/>
					<rect x="69.061" y="7.813" fill="#636363" width="0.563" height="7.538"/>
				</g>
				<g>
					<rect x="70.237" y="21.014" fill="#636363" width="0.24" height="7.216"/>
					<rect x="70.075" y="20.854" fill="#636363" width="0.564" height="7.537"/>
				</g>
				<g>
					<rect x="70.237" y="7.978" fill="#636363" width="0.24" height="7.184"/>
					<rect x="70.075" y="7.813" fill="#636363" width="0.564" height="7.511"/>
				</g>
				<g>
					<rect x="71.251" y="21.014" fill="#636363" width="0.24" height="7.216"/>
					<rect x="71.089" y="20.854" fill="#636363" width="0.564" height="7.537"/>
				</g>
				<g>
					<rect x="71.251" y="7.978" fill="#636363" width="0.24" height="7.195"/>
					<rect x="71.089" y="7.813" fill="#636363" width="0.564" height="7.52"/>
				</g>
				<g>
					<rect x="72.267" y="21.034" fill="#636363" width="0.239" height="7.194"/>
					<rect x="72.104" y="20.872" fill="#636363" width="0.563" height="7.519"/>
				</g>
				<g>
					<rect x="72.267" y="7.978" fill="#636363" width="0.239" height="7.195"/>
					<rect x="72.104" y="7.813" fill="#636363" width="0.563" height="7.52"/>
				</g>
				<g>
					<rect x="73.281" y="21.024" fill="#636363" width="0.239" height="7.205"/>
					<rect x="73.119" y="20.862" fill="#636363" width="0.562" height="7.527"/>
				</g>
				<g>
					<rect x="73.281" y="7.978" fill="#636363" width="0.239" height="7.214"/>
					<rect x="73.119" y="7.813" fill="#636363" width="0.562" height="7.538"/>
				</g>
				<g>
					<rect x="74.294" y="21.014" fill="#636363" width="0.241" height="7.216"/>
					<rect x="74.133" y="20.854" fill="#636363" width="0.562" height="7.537"/>
				</g>
				<g>
					<rect x="74.294" y="7.978" fill="#636363" width="0.241" height="7.195"/>
					<rect x="74.133" y="7.813" fill="#636363" width="0.562" height="7.52"/>
				</g>
				<g>
					<rect x="75.309" y="21.024" fill="#636363" width="0.241" height="7.205"/>
					<rect x="75.148" y="20.862" fill="#636363" width="0.562" height="7.527"/>
				</g>
				<g>
					<rect x="75.309" y="7.978" fill="#636363" width="0.241" height="7.214"/>
					<rect x="75.148" y="7.813" fill="#636363" width="0.562" height="7.538"/>
				</g>
				<g>
					<rect x="76.323" y="21.034" fill="#636363" width="0.24" height="7.194"/>
					<rect x="76.163" y="20.872" fill="#636363" width="0.562" height="7.519"/>
				</g>
				<g>
					<rect x="76.323" y="7.978" fill="#636363" width="0.24" height="7.214"/>
					<rect x="76.163" y="7.813" fill="#636363" width="0.562" height="7.538"/>
				</g>
				<g>
					<rect x="77.349" y="7.978" fill="#636363" width="0.23" height="7.195"/>
					<rect x="77.186" y="7.813" fill="#636363" width="0.554" height="7.52"/>
				</g>
				<g>
					<rect x="78.362" y="7.978" fill="#636363" width="0.23" height="7.195"/>
					<rect x="78.201" y="7.813" fill="#636363" width="0.553" height="7.52"/>
				</g>
				<g>
					<rect x="79.423" y="7.978" fill="#636363" width="0.24" height="7.184"/>
					<rect x="79.263" y="7.813" fill="#636363" width="0.561" height="7.511"/>
				</g>
			</g>
			<g>
				<polygon fill="#FFFFFF" points="9.615,23.95 18.773,27.325 18.727,26.277 9.615,22.918 				"/>
				<polygon fill="#FFFFFF" points="46.479,36.506 36.222,32.727 36.222,33.757 46.479,37.538 				"/>
				<polygon fill="#FFFFFF" points="33.229,31.623 20.48,26.924 20.811,28.077 32.964,32.557 				"/>
			</g>
		</g>
	</g>
</g>
</svg>
